<svg xmlns="http://www.w3.org/2000/svg" xmlns:xlink="http://www.w3.org/1999/xlink" viewBox="0,0,256,256" width="144px" height="144px" fill-rule="nonzero"><g fill="#00abf0" fill-rule="nonzero" stroke="none" stroke-width="1" stroke-linecap="butt" stroke-linejoin="miter" stroke-miterlimit="10" stroke-dasharray="" stroke-dashoffset="0" font-family="none" font-weight="none" font-size="none" text-anchor="none" style="mix-blend-mode: normal"><g transform="scale(5.12,5.12)"><path d="M5.46484,2c-0.28085,-0.00001 -0.54877,0.11808 -0.73824,0.32539c-0.18948,0.20731 -0.28305,0.48474 -0.25785,0.76446l3.51953,39.42578c0.03655,0.41206 0.32303,0.7591 0.7207,0.87305l16.00977,4.57227c0.17936,0.05118 0.36946,0.05118 0.54883,0l16.02539,-4.57227c0.39768,-0.11395 0.68415,-0.46098 0.7207,-0.87305l3.51758,-39.42578c0.0252,-0.27972 -0.06837,-0.55715 -0.25785,-0.76446c-0.18948,-0.20731 -0.45739,-0.32539 -0.73824,-0.32539zM6.55859,4h36.88281l-3.35742,37.6543l-15.08984,4.30664l-15.07422,-4.30664zM19,10c-0.55226,0.00006 -0.99994,0.44774 -1,1v18.62891l-5.73242,-1.58789c-0.30098,-0.08354 -0.6237,-0.02166 -0.87244,0.16728c-0.24873,0.18894 -0.3949,0.48325 -0.39514,0.79561v4.94531c0.00032,0.44898 0.29982,0.84272 0.73242,0.96289l11,3.05078c0.30098,0.08354 0.6237,0.02166 0.87244,-0.16728c0.24873,-0.18894 0.3949,-0.48325 0.39514,-0.79561v-26c-0.00006,-0.55226 -0.44774,-0.99994 -1,-1zM27,10c-0.55226,0.00006 -0.99994,0.44774 -1,1v17c-0.00022,0.29507 0.12987,0.57518 0.35547,0.76538c0.2256,0.19019 0.52367,0.27106 0.81445,0.22095l5.74805,-0.99023l-0.11914,1.77148l-6.06445,1.66797c-0.43338,0.11944 -0.73381,0.51336 -0.73437,0.96289v4.60156c-0.0002,0.31225 0.14545,0.60667 0.39377,0.79598c0.24832,0.18931 0.57081,0.25177 0.87185,0.16887l10,-2.75c0.40339,-0.1113 0.69483,-0.46197 0.73047,-0.87891l1.05469,-12.25c0.0262,-0.30365 -0.0875,-0.60268 -0.30883,-0.81222c-0.22133,-0.20954 -0.52612,-0.30672 -0.82789,-0.26395l-5.91406,0.83789v-5.84766h6.6543c0.51888,-0.00015 0.95146,-0.39711 0.99609,-0.91406l0.3457,-4c0.02404,-0.27908 -0.07006,-0.55545 -0.2594,-0.76187c-0.18935,-0.20642 -0.45658,-0.32398 -0.73669,-0.32407zM20,12h2v23.68555l-9,-2.49609v-2.87109l5.73242,1.58984c0.30098,0.08354 0.6237,0.02166 0.87244,-0.16728c0.24873,-0.18894 0.3949,-0.48325 0.39514,-0.79561zM28,12h9.91016l-0.17383,2h-6.73633c-0.55226,0.00006 -0.99994,0.44774 -1,1v8c-0.00002,0.28977 0.12565,0.5653 0.34446,0.75527c0.21881,0.18996 0.50927,0.27568 0.79616,0.23497l5.81055,-0.82422l-0.88867,10.30469l-8.0625,2.2168v-2.52539l6.01563,-1.6543c0.40986,-0.1128 0.70362,-0.47237 0.73242,-0.89648l0.25,-3.75c0.02062,-0.30608 -0.10039,-0.60469 -0.32826,-0.81009c-0.22787,-0.20539 -0.53741,-0.29484 -0.83971,-0.24265l-5.83008,1.00391z"></path></g></g></svg>